<svg xmlns="http://www.w3.org/2000/svg" viewBox="0 0 175.216 175.552">
  <defs>
    <linearGradient id="whatsapp-gradient" x1="85.915" y1="32.567" x2="85.915" y2="137.092" gradientUnits="userSpaceOnUse">
      <stop offset="0" style="stop-color:#57d163"/>
      <stop offset="1" style="stop-color:#23b33a"/>
    </linearGradient>
  </defs>
  <g>
    <path fill="url(#whatsapp-gradient)" d="M87.184,25.227c-33.733,0-61.166,27.423-61.178,61.13a60.98,60.98,0,0,0,9.349,32.535l1.455,2.312-6.179,22.559,23.146-6.069,2.235,1.324a61.04,61.04,0,0,0,31.172,8.564h.023c33.733,0,61.166-27.423,61.178-61.13S120.917,25.227,87.184,25.227Zm35.77,87.123a26.988,26.988,0,0,1-18.063,12.729c-4.8,1.368-11.045,2.458-32.054-6.871-25.02-11.113-40.753-36.883-41.975-38.601s-9.362-12.45-9.362-23.751,5.922-16.831,8.025-19.126,4.593-2.607,6.218-2.607,3.245-.038,4.668.023,3.362-.419,5.258,4.015,6.533,15.892,7.1,17.058a4.655,4.655,0,0,1,.213,4.419c-.636,1.166-1.261,1.842-2.483,3.245s-2.57,3.131-3.677,4.2-2.51,2.325-1.078,4.555,6.291,10.377,13.5,16.812c9.261,8.274,17.052,10.848,19.466,12.076s3.825,1.629,5.242.038,6.01-7.016,7.617-9.428,3.184-2.147,5.383-1.291,13.965,6.588,16.369,7.786,4.006,1.785,4.6,2.776A20.715,20.715,0,0,1,122.954,112.35Z"/>
    <path fill="#fff" d="M87.184,25.227c-33.733,0-61.166,27.423-61.178,61.13a60.98,60.98,0,0,0,9.349,32.535l1.455,2.312-6.179,22.559,23.146-6.069,2.235,1.324a61.04,61.04,0,0,0,31.172,8.564h.023c33.733,0,61.166-27.423,61.178-61.13S120.917,25.227,87.184,25.227Zm35.77,87.123a26.988,26.988,0,0,1-18.063,12.729c-4.8,1.368-11.045,2.458-32.054-6.871-25.02-11.113-40.753-36.883-41.975-38.601s-9.362-12.45-9.362-23.751,5.922-16.831,8.025-19.126,4.593-2.607,6.218-2.607,3.245-.038,4.668.023,3.362-.419,5.258,4.015,6.533,15.892,7.1,17.058a4.655,4.655,0,0,1,.213,4.419c-.636,1.166-1.261,1.842-2.483,3.245s-2.57,3.131-3.677,4.2-2.51,2.325-1.078,4.555,6.291,10.377,13.5,16.812c9.261,8.274,17.052,10.848,19.466,12.076s3.825,1.629,5.242.038,6.01-7.016,7.617-9.428,3.184-2.147,5.383-1.291,13.965,6.588,16.369,7.786,4.006,1.785,4.6,2.776A20.715,20.715,0,0,1,122.954,112.35Z" opacity="0.05"/>
  </g>
</svg>
